<?xml version="1.0" encoding="UTF-8" standalone="no"?>
<svg width="86px" height="96px" viewBox="0 0 86 96" version="1.1" xmlns="http://www.w3.org/2000/svg" xmlns:xlink="http://www.w3.org/1999/xlink">
    <!-- Generator: Sketch 42 (36781) - http://www.bohemiancoding.com/sketch -->
    <title>ic_electric big</title>
    <desc>Created with Sketch.</desc>
    <defs></defs>
    <g id="Library" stroke="none" stroke-width="1" fill="none" fill-rule="evenodd">
        <g transform="translate(-1230.000000, -40.000000)" id="ic_electric-big" fill="#5D5D5D">
            <g transform="translate(1230.000000, 40.000000)">
                <path d="M4.12923871,40.536671 C4.14575484,51.264929 12.8384,59.9565419 23.5666581,59.9740903 L26.4879484,59.9740903 C37.218271,59.9627355 45.9140129,51.2669935 45.9253677,40.536671 L45.9253677,22.2140903 L4.12923871,22.2140903 L4.12923871,40.536671 Z M0.000206451612,40.536671 L0.000206451612,20.1495742 C0.000206451612,19.0099613 0.924077419,18.0850581 2.06472258,18.0850581 L11.3550452,18.0850581 L11.3550452,2.0644129 C11.3550452,0.923767742 12.2789161,-0.000103225806 13.4195613,-0.000103225806 C14.5591742,-0.000103225806 15.4840774,0.923767742 15.4840774,2.0644129 L15.4840774,18.0850581 L34.5395613,18.0850581 L34.5395613,2.0644129 C34.5395613,0.923767742 35.4634323,-0.000103225806 36.6040774,-0.000103225806 C37.7436903,-0.000103225806 38.6685935,0.923767742 38.6685935,2.0644129 L38.6685935,18.0850581 L47.9578839,18.0850581 C49.098529,18.0850581 50.0224,19.0099613 50.0224,20.1495742 L50.0224,40.536671 C50.0069161,53.1756387 40.034271,63.5570581 27.4066581,64.0824774 C27.4200774,64.2197677 27.4200774,64.3580903 27.4066581,64.4953806 C27.4066581,65.0424774 27.3137548,67.8295742 27.4066581,79.9792516 C27.5986581,86.4411871 32.9922065,91.5240258 39.4551742,91.3320258 C45.6466581,91.1482839 50.6242065,86.1707355 50.8079484,79.9792516 L50.8079484,78.4928 C50.8131097,69.7784774 57.8551742,62.7033806 66.570529,62.6579613 L83.2414968,62.6579613 C84.3821419,62.6579613 85.3060129,63.5828645 85.3060129,64.7224774 C85.3060129,65.8631226 84.3821419,66.7869935 83.2414968,66.7869935 L66.570529,66.7869935 C60.1075613,66.7931871 54.8709161,72.0298323 54.8647226,78.4928 L54.8647226,79.8657032 C54.6593032,88.608929 47.4045935,95.5302194 38.6624,95.3248 C30.2319484,95.1255742 23.4365935,88.3570581 23.2053677,79.9276387 C23.2053677,68.2631226 23.2053677,65.1044129 23.2776258,64.0628645 C10.3981419,63.8873806 0.0384,53.4171871 0.000206451612,40.536671 L0.000206451612,40.536671 Z M63.298271,32.3818323 C62.8781419,31.8357677 62.7573677,31.1152516 62.978271,30.4618323 L69.3163355,11.8811871 C69.6838194,10.8004129 70.8574968,10.2233806 71.938271,10.5908645 C73.0190452,10.9583484 73.5960774,12.1320258 73.2285935,13.2128 L67.9434323,28.8205419 L78.4414968,28.1082839 C79.5800774,28.0473806 80.5524645,28.9217032 80.6123355,30.0602839 C80.6267871,30.3224774 80.5906581,30.584671 80.5060129,30.8334452 L74.1679484,49.4140903 C73.8004645,50.4938323 72.6257548,51.072929 71.5460129,50.7044129 C70.4652387,50.336929 69.8882065,49.1622194 70.2556903,48.0824774 L75.5924645,32.4540903 L65.0944,33.1663484 C64.4017548,33.2241548 63.7266581,32.928929 63.298271,32.3818323 L63.298271,32.3818323 Z" id="Fill-1"></path>
            </g>
        </g>
    </g>
</svg>