<?xml version="1.0" encoding="UTF-8" standalone="no"?>
<svg width="99px" height="96px" viewBox="0 0 99 96" version="1.1" xmlns="http://www.w3.org/2000/svg" xmlns:xlink="http://www.w3.org/1999/xlink">
    <!-- Generator: Sketch 42 (36781) - http://www.bohemiancoding.com/sketch -->
    <title>ic_Gas Station big</title>
    <desc>Created with Sketch.</desc>
    <defs></defs>
    <g id="Library" stroke="none" stroke-width="1" fill="none" fill-rule="evenodd">
        <g transform="translate(-1093.000000, -41.000000)" id="ic_Gas-Station-big" fill="#5D5D5D">
            <g transform="translate(1093.000000, 41.000000)">
                <path d="M13.9034483,92.7286004 L84.9979716,92.7286004 L84.9979716,86.5363083 L13.9034483,86.5363083 L13.9034483,92.7286004 Z M86.5557809,95.8247465 L12.3651116,95.8247465 C11.5083164,95.8247465 10.8267748,95.1237323 10.8267748,94.2864097 L10.8267748,85.0174442 C10.8267748,84.1606491 11.527789,83.4791075 12.3651116,83.4791075 L86.5557809,83.4791075 C87.4125761,83.4791075 88.0941176,84.1801217 88.0941176,85.0174442 L88.0941176,94.2864097 C88.0941176,95.1237323 87.4125761,95.8247465 86.5557809,95.8247465 L86.5557809,95.8247465 Z" id="Fill-1"></path>
                <path d="M23.1918864,83.4596349 L75.7484787,83.4596349 L75.7484787,3.07667343 L23.1918864,3.07667343 L23.1918864,83.4596349 Z M77.2868154,86.5363083 L21.6340771,86.5363083 C20.7772819,86.5363083 20.0957404,85.8352941 20.0957404,84.9979716 L20.0957404,1.53833671 C20.0957404,0.681541582 20.7967546,0 21.6340771,0 L77.2868154,0 C78.1436105,0 78.8251521,0.701014199 78.8251521,1.53833671 L78.8251521,84.9979716 C78.8251521,85.8547667 78.1436105,86.5363083 77.2868154,86.5363083 L77.2868154,86.5363083 Z" id="Fill-3"></path>
                <path d="M97.3824779,95.8246686 L86.555703,95.8246686 C85.6989079,95.8246686 85.0173663,95.1236544 85.0173663,94.2865266 C85.0173663,93.4492041 85.7185753,92.7479951 86.555703,92.7479951 L97.3824779,92.7479951 C98.239273,92.7479951 98.9208146,93.4492041 98.9208146,94.2865266 C98.9208146,95.1236544 98.2199951,95.8246686 97.3824779,95.8246686" id="Fill-4"></path>
                <path d="M12.3651116,95.8246686 L1.53833671,95.8246686 C0.681541582,95.8246686 0,95.1236544 0,94.2865266 C0,93.4492041 0.701014199,92.7479951 1.53833671,92.7479951 L12.3651116,92.7479951 C13.2219067,92.7479951 13.9034483,93.4492041 13.9034483,94.2865266 C13.9034483,95.1236544 13.2219067,95.8246686 12.3651116,95.8246686" id="Fill-5"></path>
                <path d="M30.9225152,26.2685598 L68.0178499,26.2685598 L68.0178499,10.8073022 L30.9225152,10.8073022 L30.9225152,26.2685598 Z M69.5561866,29.3647059 L29.3647059,29.3647059 C28.5079108,29.3647059 27.8263692,28.6636917 27.8263692,27.8263692 L27.8263692,9.26896552 C27.8263692,8.41217039 28.5273834,7.7306288 29.3647059,7.7306288 L69.5561866,7.7306288 C70.4129817,7.7306288 71.0945233,8.431643 71.0945233,9.26896552 L71.0945233,27.8263692 C71.0945233,28.6636917 70.4129817,29.3647059 69.5561866,29.3647059 L69.5561866,29.3647059 Z" id="Fill-6"></path>
                <path d="M30.9225152,58.7294118 L37.1148073,58.7294118 L37.1148073,40.1720081 L30.9225152,40.1720081 L30.9225152,58.7294118 Z M38.6336714,61.8060852 L29.3647059,61.8060852 C28.5079108,61.8060852 27.8263692,61.105071 27.8263692,60.2677485 L27.8263692,38.6336714 C27.8263692,37.7768763 28.5273834,37.0953347 29.3647059,37.0953347 L38.6336714,37.0953347 C39.4904665,37.0953347 40.1720081,37.7963489 40.1720081,38.6336714 L40.1720081,60.2677485 C40.1914807,61.1245436 39.4904665,61.8060852 38.6336714,61.8060852 L38.6336714,61.8060852 Z" id="Fill-7"></path>
                <path d="M88.0941955,75.729084 C84.6864876,75.729084 81.9017087,72.9639724 81.9017087,69.5365972 L81.9017087,57.1716803 C81.9017087,54.6207675 79.8183335,52.5370028 77.267226,52.5370028 C76.4106256,52.5370028 75.729084,51.8361834 75.729084,50.9988609 C75.729084,50.1615383 76.4300982,49.4605241 77.267226,49.4605241 C81.5319237,49.4605241 84.9980495,52.9264552 84.9980495,57.1911529 L84.9980495,69.5562645 C84.9980495,71.2698548 86.3804105,72.6522158 88.0941955,72.6522158 C89.8077858,72.6522158 91.1901469,71.2698548 91.1901469,69.5562645 L91.1901469,41.7297006 C91.1901469,40.8731002 91.8913558,40.1915586 92.7286783,40.1915586 C93.5660008,40.1915586 94.2668203,40.8925728 94.2668203,41.7297006 L94.2668203,69.5562645 C94.2864876,72.9443051 91.5019034,75.729084 88.0941955,75.729084" id="Fill-8"></path>
                <path d="M91.1902637,40.1720081 L94.2864097,40.1720081 L94.2864097,27.8068966 L91.1902637,27.8068966 L91.1902637,40.1720081 Z M95.8247465,43.2681542 L89.6324544,43.2681542 C88.7756592,43.2681542 88.0941176,42.56714 88.0941176,41.7298174 L88.0941176,26.2685598 C88.0941176,25.4117647 88.7951318,24.7302231 89.6324544,24.7302231 L95.8247465,24.7302231 C96.6815416,24.7302231 97.3630832,25.4312373 97.3630832,26.2685598 L97.3630832,41.7298174 C97.3825558,42.56714 96.6815416,43.2681542 95.8247465,43.2681542 L95.8247465,43.2681542 Z" id="Fill-9"></path>
                <path d="M92.7480341,27.8068576 C91.8914337,27.8068576 91.2098921,27.1058434 91.2098921,26.2685209 L91.2098921,14.5460057 L83.9269387,7.26324706 C83.3234824,6.65959594 83.3234824,5.68596511 83.9269387,5.082314 C84.5305899,4.47866288 85.5042207,4.47866288 86.1078718,5.082314 L93.8386953,12.8129428 C94.1307846,13.105032 94.2863708,13.4944844 94.2863708,13.9034093 L94.2863708,26.2685209 C94.2863708,27.125316 93.5853566,27.8068576 92.7480341,27.8068576" id="Fill-10"></path>
            </g>
        </g>
    </g>
</svg>