<?xml version="1.0" encoding="UTF-8" standalone="no"?>
<svg width="96px" height="95px" viewBox="0 0 96 95" version="1.1" xmlns="http://www.w3.org/2000/svg" xmlns:xlink="http://www.w3.org/1999/xlink">
    <!-- Generator: Sketch 42 (36781) - http://www.bohemiancoding.com/sketch -->
    <title>ic_moon@3x</title>
    <desc>Created with Sketch.</desc>
    <defs></defs>
    <g id="Page-2" stroke="none" stroke-width="1" fill="none" fill-rule="evenodd">
        <g id="Library" transform="translate(-959.000000, -41.000000)" fill="#5D5D5D">
            <g id="ic_moon" transform="translate(959.000000, 40.000000)">
                <g id="noun_785694_cc">
                    <path d="M95.04,65.76 C95.04,65.28 94.92,64.8 94.68,64.44 C94.2,63.84 93.36,63.6 92.64,63.72 C91.8,63.84 90.96,64.2 90.12,64.56 C89.52,64.8 88.92,65.04 88.2,65.28 C86.88,65.76 85.44,66.24 84.12,66.6 C82.68,66.96 81.36,67.32 79.92,67.56 C78.48,67.8 77.04,67.92 75.6,68.04 C74.64,68.16 73.56,68.16 72.6,68.16 C48,68.16 28.08,48.12 28.08,23.52 C28.08,20.64 28.32,17.64 28.92,14.76 C29.52,11.88 30.36,9.12 31.44,6.36 C31.8,5.52 32.28,4.68 32.4,3.72 C32.52,3.12 32.52,2.4 32.16,1.8 C31.56,0.84 30,0.84 29.04,1.2 C28.2,1.44 27.36,1.92 26.64,2.4 C25.8,2.88 24.96,3.24 24.24,3.84 C22.44,4.92 20.64,6.24 18.96,7.56 C17.28,8.88 15.72,10.32 14.28,11.88 C12.84,13.44 11.52,15 10.32,16.68 C9.12,18.36 8.04,20.04 6.96,21.96 C6,23.76 5.04,25.68 4.32,27.6 C3.6,29.52 2.88,31.44 2.4,33.48 C1.92,35.52 1.44,37.56 1.2,39.6 C0.96,41.64 0.84,43.68 0.72,45.84 C0.72,47.88 0.84,50.04 1.08,52.08 C1.32,54.24 1.68,56.28 2.28,58.32 C2.88,60.36 3.48,62.52 4.32,64.44 C4.68,65.28 5.04,66.12 5.4,66.96 C17.04,91.68 46.44,102.24 71.04,90.6 C72.12,90.12 73.2,89.52 74.28,88.92 C75.36,88.32 76.44,87.72 77.4,87 C78.48,86.28 79.44,85.56 80.4,84.84 C81.36,84.12 82.32,83.28 83.16,82.44 C86.04,79.92 88.56,77.04 90.72,73.92 C92.04,71.88 93.36,69.84 94.44,67.68 C94.8,67.08 95.04,66.48 95.04,65.76 Z M50.28,90.24 C25.68,90.24 5.76,70.44 5.64,45.84 C5.64,30.96 13.08,16.92 25.44,8.64 C17.28,34.68 31.8,62.4 57.72,70.56 C67.32,73.56 77.64,73.56 87.24,70.56 C78.96,82.92 65.04,90.24 50.28,90.24 Z M51.12,21.6 C51.12,20.28 52.2,19.2 53.52,19.2 L69.72,19.2 C71.04,19.2 72.12,20.28 72.12,21.6 C72.12,22.08 72,22.56 71.64,23.04 L60.24,38.76 L69.6,38.76 C70.92,38.76 72,39.84 72,41.16 C72,42.48 70.92,43.56 69.6,43.56 L55.56,43.56 C54.24,43.56 53.16,42.48 53.16,41.16 C53.16,40.68 53.28,40.2 53.64,39.72 L65.04,24 L53.52,24 C52.2,24.12 51.12,23.04 51.12,21.6 L51.12,21.6 Z M76.32,10.92 C76.32,9.6 77.4,8.52 78.72,8.52 L90.24,8.52 C91.56,8.52 92.64,9.6 92.64,10.92 C92.64,11.4 92.52,11.88 92.16,12.36 L84.84,22.44 L90.24,22.44 C91.56,22.44 92.64,23.52 92.64,24.84 C92.64,26.16 91.56,27.24 90.24,27.24 L80.16,27.24 C78.84,27.24 77.76,26.16 77.76,24.84 C77.76,24.36 77.88,23.88 78.24,23.4 L85.56,13.32 L78.72,13.32 C77.4,13.32 76.32,12.24 76.32,10.92 L76.32,10.92 Z" id="Shape"></path>
                </g>
            </g>
        </g>
    </g>
</svg>